<svg width="400" height="520" xmlns="http://www.w3.org/2000/svg" font-family="Helvetica, Arial, sans-serif">
  <rect width="400" height="520" fill="#1a1a2e" rx="12"/>

  <text x="20" y="30" font-size="20" fill="white">Your Git Wrapped</text>
  <rect x="20" y="38" width="60" height="3" fill="#e94560" rx="1.5"/>

  
  <rect x="20" y="250" width="10" height="0" fill="#e94560"/>
  
  <text x="20" y="265" font-size="9" fill="#666">0</text>
  
  
  <rect x="35" y="250" width="10" height="0" fill="#e94560"/>
  
  
  <rect x="50" y="250" width="10" height="0" fill="#e94560"/>
  
  
  <rect x="65" y="250" width="10" height="0" fill="#e94560"/>
  
  <text x="65" y="265" font-size="9" fill="#666">3</text>
  
  
  <rect x="80" y="250" width="10" height="0" fill="#e94560"/>
  
  
  <rect x="95" y="250" width="10" height="0" fill="#e94560"/>
  
  
  <rect x="110" y="250" width="10" height="0" fill="#e94560"/>
  
  <text x="110" y="265" font-size="9" fill="#666">6</text>
  
  
  <rect x="125" y="250" width="10" height="0" fill="#e94560"/>
  
  
  <rect x="140" y="250" width="10" height="0" fill="#e94560"/>
  
  
  <rect x="155" y="250" width="10" height="0" fill="#e94560"/>
  
  <text x="155" y="265" font-size="9" fill="#666">9</text>
  
  
  <rect x="170" y="250" width="10" height="0" fill="#e94560"/>
  
  
  <rect x="185" y="250" width="10" height="0" fill="#e94560"/>
  
  
  <rect x="200" y="200" width="10" height="50" fill="#e94560"/>
  
  <text x="200" y="265" font-size="9" fill="#666">12</text>
  
  
  <rect x="215" y="250" width="10" height="0" fill="#e94560"/>
  
  
  <rect x="230" y="150" width="10" height="100" fill="#e94560"/>
  
  
  <rect x="245" y="250" width="10" height="0" fill="#e94560"/>
  
  <text x="245" y="265" font-size="9" fill="#666">15</text>
  
  
  <rect x="260" y="200" width="10" height="50" fill="#e94560"/>
  
  
  <rect x="275" y="150" width="10" height="100" fill="#e94560"/>
  
  
  <rect x="290" y="200" width="10" height="50" fill="#e94560"/>
  
  <text x="290" y="265" font-size="9" fill="#666">18</text>
  
  
  <rect x="305" y="200" width="10" height="50" fill="#e94560"/>
  
  
  <rect x="320" y="250" width="10" height="0" fill="#e94560"/>
  
  
  <rect x="335" y="250" width="10" height="0" fill="#e94560"/>
  
  <text x="335" y="265" font-size="9" fill="#666">21</text>
  
  
  <rect x="350" y="250" width="10" height="0" fill="#e94560"/>
  
  
  <rect x="365" y="250" width="10" height="0" fill="#e94560"/>
  
  

  <line x1="20" y1="250" x2="380" y2="250" stroke="#444" stroke-width="1"/>

  <text x="20" y="290" font-size="14" fill="#888">Total commits: <tspan fill="#e94560" font-weight="bold">8</tspan></text>
  <text x="20" y="315" font-size="14" fill="#888">Busiest hour: <tspan fill="#e94560" font-weight="bold">14:00</tspan></text>
  <text x="20" y="340" font-size="14" fill="#888">Busiest day: <tspan fill="#e94560" font-weight="bold">Thursday</tspan></text>
  <text x="20" y="365" font-size="14" fill="#888">Longest streak: <tspan fill="#e94560" font-weight="bold">2</tspan> days</text>
  <text x="20" y="390" font-size="14" fill="#888">Most-changed file: <tspan fill="#e94560" font-weight="bold">main.go</tspan> (340 lines)</text>

  <line x1="20" y1="410" x2="380" y2="410" stroke="#444" stroke-width="1"/>

  <text x="20" y="435" font-size="13" fill="#ccc">
    
    <tspan x="20" dy="0">A classic "Thursday afternoon hero," you</tspan>
    
    <tspan x="20" dy="18">operate on a highly efficient cycle of</tspan>
    
    <tspan x="20" dy="18">post-lunch caffeine spikes at 2:00 PM and a</tspan>
    
    <tspan x="20" dy="18">strictly enforced two-day streak limit to</tspan>
    
    <tspan x="20" dy="18">protect your peace. While system architects</tspan>
    
    <tspan x="20" dy="18">might weep seeing 340 lines of Go crammed</tspan>
    
    <tspan x="20" dy="18">entirely into `main.go`, we have to admire</tspan>
    
    <tspan x="20" dy="18">your laser-focused, "just make it work before</tspan>
    
    <tspan x="20" dy="18">Friday" minimalism. Why write multiple files</tspan>
    
    <tspan x="20" dy="18">when one giant file and eight perfectly timed</tspan>
    
    <tspan x="20" dy="18">commits do the trick?</tspan>
    
  </text>
</svg>